<?xml version="1.0" encoding="iso-8859-1"?>
<!-- Generator: Adobe Illustrator 19.0.0, SVG Export Plug-In . SVG Version: 6.00 Build 0)  -->
<svg version="1.1" id="Layer_1" xmlns="http://www.w3.org/2000/svg" xmlns:xlink="http://www.w3.org/1999/xlink" x="0px" y="0px"
	 viewBox="0 0 500.8 500.8" style="enable-background:new 0 0 500.8 500.8;" xml:space="preserve">
<rect x="202.4" y="346" style="fill:#D6D6D6;" width="112" height="144"/>
<path style="fill:#00233F;" d="M340.8,138c0,40-32,72-72,72h-35.2c-40,0-72-32-72-72l0,0c0-40,32-72,72-72h35.2
	C308,66,340.8,98,340.8,138L340.8,138z"/>
<rect x="186.4" y="242" style="fill:#F9BDA0;" width="128" height="104"/>
<polygon style="fill:#E28F71;" points="314.4,346 250.4,346 190.4,242 314.4,242 "/>
<path style="fill:#FCCCB9;" d="M339.2,165.2c0,70.4-43.2,134.4-88.8,134.4s-88.8-64-88.8-134.4s43.2-82.4,88.8-82.4
	S339.2,94,339.2,165.2z"/>
<path style="fill:#F9BDA0;" d="M250.4,82.8c45.6,0,88.8,12,88.8,82.4S296,298.8,250.4,298.8"/>
<path style="fill:#00233F;" d="M282.4,74c0,8.8-7.2,16-16,16h-24c-8.8,0-16-7.2-16-16l0,0c0-8.8,7.2-16,16-16h24
	C275.2,58,282.4,65.2,282.4,74L282.4,74z"/>
<polygon style="fill:#8FD9F9;" points="187.2,313.2 32,369.2 0,490 244,490 "/>
<polygon style="fill:#5AC1E5;" points="187.2,313.2 60,385.2 32,490 244,490 "/>
<polygon style="fill:#D6D6D6;" points="186.4,303.6 150.4,318.8 175.2,388.4 242.4,490.8 242.4,345.2 "/>
<polygon style="fill:#FFFFFF;" points="186.4,303.6 248.8,346 176.8,382.8 "/>
<polygon style="fill:#8FD9F9;" points="313.6,313.2 468.8,369.2 500.8,490 256.8,490 "/>
<polygon style="fill:#5AC1E5;" points="313.6,313.2 440.8,385.2 468.8,490 256.8,490 "/>
<polygon style="fill:#D6D6D6;" points="314.4,303.6 350.4,318.8 325.6,388.4 258.4,490.8 258.4,345.2 "/>
<polygon style="fill:#FFFFFF;" points="314.4,303.6 252,346 324,382.8 "/>
<polygon style="fill:#990A52;" points="426.4,490 74.4,490 66.4,410 434.4,410 "/>
<g>
	<polygon style="fill:#D81665;" points="68,426 432.8,426 434.4,410 66.4,410 	"/>
	<path style="fill:#D81665;" d="M122.4,438c0,6.4-5.6,12-12,12l0,0c-6.4,0-12-5.6-12-12V334c0-6.4,5.6-12,12-12l0,0
		c6.4,0,12,5.6,12,12V438z"/>
</g>
<path style="fill:#990A52;" d="M110.4,322L110.4,322c6.4,0,12,5.6,12,12v108.8c0,6.4-4.8,12-11.2,12l0,0c-6.4,0-12-5.6-12-12"/>
<path style="fill:#D81665;" d="M402.4,438c0,6.4-5.6,12-12,12l0,0c-6.4,0-12-5.6-12-12V334c0-6.4,5.6-12,12-12l0,0
	c6.4,0,12,5.6,12,12V438z"/>
<path style="fill:#990A52;" d="M390.4,322L390.4,322c6.4,0,12,5.6,12,12v108.8c0,6.4-6.4,12-12.8,12l0,0c-6.4,0-12-5.6-12-12"/>
<g>
	<circle style="fill:#8FD9F9;" cx="112" cy="443.6" r="10.4"/>
	<circle style="fill:#8FD9F9;" cx="388.8" cy="443.6" r="10.4"/>
</g>
<path style="fill:#D81665;" d="M246.4,91.6c32,0,60,4.8,84,12.8v-16c0-44-34.4-78.4-78.4-78.4h-7.2c-44,0-82.4,34.4-82.4,79.2v16
	C186.4,96.4,214.4,91.6,246.4,91.6z"/>
<path style="fill:#990A52;" d="M162.4,90v14.4c24-8,52-12.8,84-12.8s68,12.8,92,20.8v-24c0-44-42.4-78.4-86.4-78.4h-9.6"/>
<path style="fill:#8FD9F9;" d="M248,110c36.8,0,70.4,3.2,95.2,7.2C336.8,97.2,298.4,82,252,82h-8c-46.4,0-84.8,15.2-91.2,35.2
	C178.4,113.2,211.2,110,248,110z"/>
<path style="fill:#5AC1E5;" d="M152,117.2c25.6-4,59.2-6.4,96-6.4s70.4,2.4,96,6.4c-7.2-20-45.6-35.2-92-35.2h-9.6"/>
<g>
</g>
<g>
</g>
<g>
</g>
<g>
</g>
<g>
</g>
<g>
</g>
<g>
</g>
<g>
</g>
<g>
</g>
<g>
</g>
<g>
</g>
<g>
</g>
<g>
</g>
<g>
</g>
<g>
</g>
</svg>
