<?xml version="1.0" encoding="iso-8859-1"?>
<!-- Generator: Adobe Illustrator 19.0.0, SVG Export Plug-In . SVG Version: 6.00 Build 0)  -->
<svg version="1.1" id="Layer_1" xmlns="http://www.w3.org/2000/svg" xmlns:xlink="http://www.w3.org/1999/xlink" x="0px" y="0px"
	 viewBox="0 0 443.18 443.18" style="enable-background:new 0 0 443.18 443.18;" xml:space="preserve">
<g>
	<path style="fill:#005ECE;" d="M135.768,160V0c-44.112,0-80,35.888-80,80S91.656,160,135.768,160z"/>
	<path style="fill:#003F8A;" d="M215.769,80c0-44.112-35.888-80-80-80v160C179.88,160,215.769,124.112,215.769,80z"/>
	<path style="fill:#003F8A;" d="M214.252,206.764C192.51,189.993,165.286,180,135.768,180v148.75h33.024
		c-0.978-6.527-1.489-13.205-1.489-20C167.303,268.004,185.529,231.437,214.252,206.764z"/>
	<path style="fill:#005ECE;" d="M7.018,308.75v20h128.75V180C64.778,180,7.018,237.76,7.018,308.75z"/>
	<path style="fill:#FFDA44;" d="M272.305,366.461l-28.284-28.284l29.427-29.427l-29.427-29.427l28.284-28.284l29.427,29.427V174.321
		c-33.378,0-63.951,12.232-87.48,32.443c-28.724,24.673-46.95,61.239-46.95,101.986c0,6.795,0.511,13.473,1.489,20
		c9.688,64.673,65.611,114.43,132.94,114.43V337.034L272.305,366.461z"/>
	<path style="fill:#FFCD00;" d="M301.732,174.321v106.145l29.427-29.427l28.284,28.284l-29.427,29.427l29.427,29.427l-28.284,28.284
		l-29.427-29.427c0,0,0,106.145,0,106.145c74.125,0,134.43-60.305,134.43-134.43C436.162,234.625,375.857,174.321,301.732,174.321z"
		/>
	<polygon style="fill:#2488FF;" points="244.021,279.323 273.448,308.75 244.021,338.177 272.305,366.461 301.733,337.034 
		331.159,366.461 359.444,338.177 330.017,308.75 359.444,279.323 331.159,251.039 301.733,280.466 272.306,251.039 	"/>
</g>
<g>
</g>
<g>
</g>
<g>
</g>
<g>
</g>
<g>
</g>
<g>
</g>
<g>
</g>
<g>
</g>
<g>
</g>
<g>
</g>
<g>
</g>
<g>
</g>
<g>
</g>
<g>
</g>
<g>
</g>
</svg>
